<svg
    xmlns="http://www.w3.org/2000/svg"
    width="24"   // Set width as needed
    height="24"  // Set height as needed
    viewBox="0 0 24 24"
    fill="currentColor"
  >
    <path d="M12 .297c-6.63 0-12 5.373-12 12 0 5.303 3.438 9.8 8.205 11.387.6.113.82-.258.82-.577v-2.234c-3.338.724-4.033-1.416-4.033-1.416-.546-1.387-1.333-1.757-1.333-1.757-1.086-.744.083-.729.083-.729 1.205.084 1.838 1.236 1.838 1.236 1.07 1.834 2.809 1.304 3.495.998.108-.775.418-1.304.76-1.604-2.665-.305-5.466-1.335-5.466-5.931 0-1.31.467-2.38 1.235-3.221-.123-.303-.535-1.524.117-3.176 0 0 1.008-.322 3.301 1.23a11.51 11.51 0 0 1 3.004-.404 11.5 11.5 0 0 1 3.004.404c2.293-1.552 3.301-1.23 3.301-1.23.653 1.653.241 2.874.118 3.176.77.841 1.235 1.911 1.235 3.221 0 4.61-2.807 5.623-5.479 5.921.43.372.814 1.103.814 2.222v3.293c0 .322.218.694.824.576C20.565 22.092 24 17.592 24 12.297c0-6.627-5.373-12-12-12" />
  </svg>